<svg width="1024" height="768" xmlns="http://www.w3.org/2000/svg">
 <g>
  <title>Layer 1</title>
  <path id="svg_1" d="m271.60001,371.79999l2.39999,28.20001l9,20l11,25l18,28l20,23l22,17l32,21l42,18l44,11l43,7c0.60001,0.79999 49.60001,5.79999 50.60001,6.79999c1,1 51,3 50.39999,2.20001c0.60001,0.79999 54.60001,1.79999 54,1c0.60001,0.79999 58.60001,2.79999 58,2c0.60001,0.79999 46.60001,-0.20001 46,-1c0.60001,0.79999 -47.39999,-5.20001 -48,-6c0.60001,0.79999 -15.39999,-9.20001 -16,-10c0.60001,0.79999 -23.39999,-11.20001 -24,-12c0.60001,0.79999 -20.39999,-11.20001 -21,-12c0.60001,0.79999 -33.39999,-17.20001 -34,-18c0.60001,0.79999 -36.39999,-19.20001 -37,-20c0.60001,0.79999 -43.39999,-25.20001 -44,-26c0.60001,0.79999 -42.39999,-28.20001 -43,-29c0.60001,0.79999 -31.39999,-30.20001 -32,-31c0.60001,0.79999 -25.39999,-37.20001 -26,-38c0.60001,0.79999 -20.39999,-52.20001 -21,-53c0.60001,0.79999 -8.39999,-21.20001 -9,-22c0.60001,0.79999 -19.39999,-34.20001 -20,-35c0.60001,0.79999 -24.39999,-28.20001 -25,-29c0.60001,0.79999 -35.39999,-28.20001 -36,-29c0.60001,0.79999 -32.39999,-15.20001 -33,-16c0.60001,0.79999 -35.39999,-8.20001 -36,-9c0.60001,0.79999 2.60001,185.79999 2.60001,185.79999z" opacity="NaN" stroke="#000" fill="#ff7f00"/>
 </g>

</svg>